<?xml version="1.0" standalone="no"?>
<!DOCTYPE svg PUBLIC "-//W3C//DTD SVG 20010904//EN"
 "http://www.w3.org/TR/2001/REC-SVG-20010904/DTD/svg10.dtd">
<svg version="1.0" xmlns="http://www.w3.org/2000/svg"
 width="800.000000pt" height="800.000000pt" viewBox="0 0 800.000000 800.000000"
 preserveAspectRatio="xMidYMid meet">
<metadata>
Created by potrace 1.11, written by Peter Selinger 2001-2013
</metadata>
<g transform="translate(0.000000,800.000000) scale(0.100000,-0.100000)"
fill="#000000" stroke="none">
<path d="M3778 7994 c-2 -1 -47 -5 -100 -9 -54 -3 -108 -8 -120 -10 -13 -3
-45 -7 -73 -10 -27 -2 -61 -7 -75 -9 -14 -3 -41 -8 -60 -10 -19 -3 -48 -8 -65
-11 -16 -3 -42 -7 -57 -8 -15 -1 -28 -5 -28 -9 0 -3 -8 -5 -17 -3 -10 1 -24
-2 -30 -8 -7 -5 -13 -7 -13 -4 0 3 -24 -1 -52 -9 -29 -8 -66 -16 -82 -19 -16
-3 -33 -8 -38 -11 -5 -3 -24 -8 -41 -11 -18 -3 -38 -10 -44 -15 -7 -6 -13 -8
-13 -5 0 7 -9 4 -195 -60 -71 -25 -149 -54 -172 -64 -23 -10 -44 -19 -46 -19
-3 0 -29 -11 -58 -24 -30 -13 -57 -23 -60 -22 -4 0 -17 -8 -29 -19 -12 -11
-24 -18 -26 -17 -5 4 -154 -68 -164 -78 -3 -3 -30 -18 -60 -34 -30 -15 -98
-55 -150 -87 -52 -33 -104 -65 -115 -72 -87 -54 -272 -195 -430 -327 -37 -30
-362 -356 -390 -390 -11 -14 -56 -70 -100 -125 -44 -55 -82 -102 -85 -105 -3
-3 -9 -12 -15 -21 -5 -9 -46 -70 -91 -135 -186 -275 -325 -546 -441 -859 -44
-118 -126 -392 -136 -450 -3 -16 -14 -73 -25 -125 -19 -85 -29 -144 -38 -205
-1 -11 -5 -37 -8 -57 -11 -74 -15 -104 -23 -193 -10 -111 -9 -595 1 -690 4
-38 9 -86 11 -106 7 -66 14 -123 20 -149 2 -13 7 -42 10 -65 4 -22 8 -53 11
-70 8 -46 43 -204 59 -260 8 -27 24 -86 36 -130 71 -264 236 -644 392 -905 57
-96 186 -292 197 -300 3 -3 15 -20 25 -38 11 -17 23 -32 27 -32 4 0 8 -6 8
-14 0 -8 3 -16 8 -18 4 -2 25 -25 47 -53 22 -27 45 -55 50 -62 85 -100 133
-152 265 -283 85 -85 177 -173 204 -195 27 -22 70 -59 95 -82 25 -23 51 -43
58 -43 6 0 13 -4 15 -8 5 -13 147 -115 258 -187 58 -37 117 -76 132 -86 15
-11 29 -19 32 -19 2 0 42 -22 88 -48 146 -84 395 -200 528 -245 25 -9 75 -27
113 -40 37 -14 67 -23 67 -20 0 3 6 1 13 -5 7 -6 28 -14 47 -17 18 -3 37 -8
42 -11 4 -3 16 -7 25 -9 10 -2 61 -16 113 -30 52 -14 106 -27 120 -30 14 -3
36 -7 50 -10 14 -3 37 -7 53 -10 15 -3 39 -7 55 -10 15 -3 36 -7 47 -9 11 -2
43 -7 70 -11 28 -3 66 -9 85 -11 233 -34 736 -39 950 -9 19 3 55 7 80 10 25 3
59 7 75 11 17 3 44 7 60 9 17 2 41 6 55 9 14 3 39 8 55 11 17 4 39 7 50 9 11
1 26 5 33 9 6 5 12 6 12 4 0 -3 42 6 93 19 50 14 103 27 117 30 102 22 426
139 578 210 29 13 57 24 62 24 6 0 10 5 10 10 0 6 3 9 8 8 16 -6 383 195 390
214 2 4 8 8 13 8 13 0 133 81 137 92 2 4 8 8 13 8 11 0 122 81 127 93 2 4 10
7 17 7 7 0 15 3 17 8 2 4 23 23 48 42 155 120 410 366 550 530 279 327 522
730 673 1115 51 131 70 180 67 180 0 0 11 33 25 74 14 40 24 75 22 77 -2 2
-20 -8 -40 -21 -20 -14 -39 -25 -42 -25 -3 0 -11 -5 -18 -10 -7 -6 -64 -43
-127 -82 -205 -127 -310 -193 -447 -281 -40 -26 -75 -47 -78 -47 -3 0 -11 -5
-18 -10 -14 -12 -238 -160 -243 -160 -1 0 -73 -47 -159 -105 -86 -58 -161
-105 -166 -105 -5 0 -9 -4 -9 -10 0 -5 -7 -10 -15 -10 -8 0 -15 -4 -15 -10 0
-5 -6 -10 -14 -10 -17 0 -12 -45 6 -67 6 -7 8 -13 5 -13 -3 0 -1 -15 4 -32 20
-71 27 -205 14 -278 -17 -97 -23 -125 -25 -125 -1 0 -3 -10 -6 -23 -5 -30 -50
-136 -80 -190 -57 -102 -70 -118 -219 -267 -101 -102 -148 -144 -220 -197 -5
-4 -23 -18 -40 -31 -46 -36 -174 -117 -185 -117 -6 0 -10 -5 -10 -11 0 -5 -4
-8 -9 -4 -5 3 -15 -1 -23 -8 -22 -21 -197 -95 -263 -111 -5 -2 -21 -6 -35 -9
-86 -22 -235 -30 -283 -14 -83 26 -132 55 -173 100 -24 27 -43 52 -42 55 1 4
-3 17 -10 28 -14 27 -31 130 -25 158 15 72 30 117 57 166 32 59 33 61 68 101
13 15 37 43 53 64 50 62 191 181 390 330 213 159 304 221 633 431 l62 40 -29
27 c-71 63 -183 99 -316 100 -32 1 -175 -12 -195 -18 -3 0 -39 -9 -81 -18 -42
-10 -135 -38 -205 -63 -71 -25 -135 -46 -141 -46 -7 -1 -13 -5 -13 -10 0 -4
-6 -8 -14 -8 -18 0 -160 -62 -164 -72 -2 -5 -11 -8 -20 -8 -9 0 -26 -7 -36
-15 -11 -8 -28 -15 -37 -15 -10 0 -19 -3 -21 -7 -1 -5 -39 -26 -83 -48 -84
-43 -319 -173 -370 -206 -16 -10 -37 -22 -45 -26 -8 -3 -33 -18 -55 -32 -218
-136 -370 -235 -373 -243 -2 -5 -10 -8 -17 -8 -7 0 -15 -3 -17 -7 -3 -9 -96
-73 -104 -73 -3 0 -10 -5 -17 -11 -7 -6 -59 -44 -117 -84 -58 -41 -109 -78
-115 -82 -5 -5 -26 -19 -45 -32 -36 -24 84 96 153 153 21 17 49 40 61 51 75
67 100 87 186 155 52 41 97 77 100 80 3 3 50 38 105 78 55 40 107 78 115 85
43 35 121 87 129 87 5 0 11 4 13 8 3 9 241 166 298 198 19 10 37 22 40 25 3 4
25 17 50 29 25 12 47 26 50 30 3 3 20 13 38 21 17 8 32 18 32 22 0 5 4 6 9 2
5 -3 12 -1 15 4 3 5 70 40 148 79 177 88 359 161 488 197 3 1 23 7 46 13 52
15 135 31 199 40 87 10 269 6 290 -8 6 -4 30 -12 54 -19 77 -22 151 -67 229
-139 34 -32 36 -32 61 -15 14 9 37 23 51 31 14 7 37 21 52 30 23 15 106 65
163 98 11 6 115 67 230 134 289 169 307 179 335 193 14 6 27 14 30 17 3 3 19
12 35 20 17 8 49 27 71 43 23 15 45 27 48 27 4 0 69 35 144 78 75 43 183 104
240 136 102 57 120 75 127 131 2 11 8 38 13 60 6 22 14 54 16 70 3 17 8 41 11
55 5 24 8 38 22 120 3 19 7 44 9 55 27 144 38 323 38 590 0 280 -11 445 -39
605 -1 8 -8 49 -15 90 -22 139 -107 482 -140 563 -13 33 -23 61 -26 72 -24 98
-189 465 -283 628 -11 20 -31 54 -42 75 -12 20 -30 49 -40 64 -11 14 -19 31
-19 36 0 6 -3 12 -7 14 -5 2 -30 37 -57 78 -48 74 -193 269 -238 322 -13 15
-39 46 -58 70 -19 24 -107 115 -195 203 -183 184 -221 218 -395 353 -52 40
-102 79 -111 86 -9 8 -20 15 -25 17 -19 8 -159 104 -162 112 -2 4 -8 7 -14 7
-6 0 -30 14 -55 30 -24 17 -45 30 -47 30 -1 0 -49 26 -107 58 -143 80 -301
155 -424 201 -33 13 -73 29 -90 36 -42 18 -215 76 -244 81 -14 3 -28 7 -33 10
-4 3 -16 7 -25 9 -10 3 -63 16 -118 31 -100 26 -117 30 -165 39 -14 2 -50 9
-80 15 -30 6 -68 13 -83 15 -15 2 -47 7 -70 11 -54 8 -80 11 -147 18 -30 3
-80 9 -110 12 -53 6 -547 13 -552 8z m-171 -698 c-2 -5 -17 -10 -35 -12 -63
-7 -234 -80 -330 -141 -92 -59 -253 -214 -287 -277 -11 -20 -23 -36 -27 -36
-5 0 -8 -7 -8 -15 0 -8 -5 -15 -12 -15 -6 0 -8 -3 -5 -6 3 -4 2 -16 -4 -27 -8
-14 -8 -18 0 -13 12 8 41 15 81 21 14 2 43 7 65 10 22 4 56 8 76 9 19 1 39 5
45 8 12 8 342 2 379 -6 17 -4 49 -11 72 -17 134 -29 351 -139 452 -228 13 -12
27 -21 30 -21 3 0 22 -15 43 -33 20 -17 57 -49 82 -71 26 -21 77 -66 114 -101
37 -34 92 -84 122 -110 62 -53 254 -185 270 -185 5 0 10 -3 10 -7 0 -5 19 -17
43 -28 23 -11 44 -22 47 -25 10 -12 247 -123 325 -152 28 -11 79 -31 115 -44
36 -14 72 -27 80 -29 8 -3 51 -15 95 -28 83 -25 84 -30 5 -45 -36 -7 -269 -6
-310 1 -79 13 -107 19 -140 29 -19 6 -35 10 -35 8 0 -1 -17 5 -37 13 -21 9
-38 13 -38 10 0 -3 -7 0 -15 7 -8 7 -15 10 -15 7 0 -2 -42 11 -92 30 -51 18
-100 36 -108 38 -8 2 -44 16 -80 30 -101 40 -245 95 -265 101 -5 2 -67 23
-137 48 -71 25 -128 43 -128 39 0 -3 -6 -1 -13 5 -7 6 -24 13 -37 15 -14 3
-45 11 -70 18 -25 7 -50 13 -56 15 -7 1 -45 9 -85 19 -41 9 -87 18 -104 20
-16 3 -43 7 -60 9 -156 27 -510 28 -655 2 -34 -6 -87 -15 -135 -22 -22 -4 -48
-10 -57 -15 -10 -6 -18 -7 -18 -5 0 3 -12 1 -27 -5 -16 -6 -39 -13 -52 -15
-14 -3 -29 -8 -35 -12 -6 -4 -13 -7 -16 -8 -58 -11 -215 -87 -304 -146 -170
-113 -320 -273 -428 -453 -33 -55 -101 -183 -104 -195 -1 -7 -22 -59 -33 -85
-5 -11 -19 -49 -31 -85 -12 -36 -25 -72 -28 -80 -3 -8 -4 -19 -3 -23 0 -4 -3
-16 -8 -26 -6 -10 -13 -32 -16 -50 -3 -17 -12 -59 -20 -93 -8 -35 -17 -85 -21
-113 -3 -27 -8 -59 -10 -70 -8 -40 -15 -101 -18 -163 -2 -35 -6 -66 -9 -69 -4
-3 -2 -13 3 -23 5 -10 6 -21 2 -24 -8 -8 -10 -306 -2 -306 3 0 5 -34 5 -76 0
-42 3 -78 7 -80 4 -3 5 -10 2 -18 -3 -7 0 -25 6 -40 7 -20 7 -25 -2 -20 -7 4
-8 3 -4 -4 4 -6 9 -28 11 -49 3 -21 8 -51 11 -66 3 -16 7 -38 8 -50 2 -12 6
-35 9 -52 4 -16 9 -46 12 -65 3 -19 15 -67 26 -107 10 -40 21 -81 23 -91 1 -9
6 -25 10 -34 4 -9 9 -25 11 -35 2 -10 4 -18 5 -18 1 0 3 -7 5 -15 24 -121 198
-499 326 -705 10 -16 28 -49 40 -73 12 -23 24 -42 28 -42 3 0 12 -13 19 -28 6
-16 21 -38 32 -50 12 -12 18 -22 16 -22 -8 0 146 -224 156 -228 4 -2 8 -8 8
-13 0 -7 41 -65 83 -119 7 -8 23 -31 37 -50 13 -19 27 -37 30 -40 3 -3 17 -21
30 -40 13 -19 29 -40 35 -46 13 -15 31 -37 75 -94 51 -66 53 -69 117 -146 32
-39 70 -86 85 -105 14 -19 47 -56 73 -84 l47 -50 -54 70 c-30 39 -65 86 -78
105 -13 19 -27 37 -30 40 -3 3 -17 21 -30 40 -13 19 -27 37 -30 40 -3 3 -34
48 -70 100 -35 52 -68 96 -72 98 -4 2 -8 10 -8 18 0 8 -4 14 -10 14 -5 0 -10
7 -10 15 0 8 -4 15 -10 15 -5 0 -10 4 -10 9 0 5 -24 45 -53 90 -75 115 -130
205 -127 210 1 2 -2 7 -7 10 -10 7 -21 25 -70 114 -20 37 -41 67 -45 67 -4 0
-8 7 -8 16 0 9 -9 29 -21 45 -11 16 -71 129 -133 252 -97 193 -146 299 -226
498 -18 42 -67 185 -75 219 -3 8 -13 49 -25 90 -11 41 -22 89 -25 105 -5 31
-11 61 -21 105 -2 14 -7 43 -9 65 -2 22 -7 63 -11 90 -4 28 -8 83 -8 122 -1
40 -3 73 -6 73 -12 0 0 349 16 485 7 60 21 148 28 180 2 11 7 42 10 70 4 27
11 54 16 61 6 6 8 13 5 16 -3 2 0 20 6 39 5 19 12 44 15 57 7 33 63 203 80
239 8 17 14 35 14 40 0 5 27 58 61 118 85 153 177 265 314 381 61 52 210 154
225 154 4 0 13 7 20 15 7 8 16 13 20 10 5 -3 15 2 24 10 8 9 19 16 23 15 13 0
48 12 53 19 5 6 117 48 150 56 8 3 40 11 70 19 56 15 88 22 150 32 19 3 42 7
50 9 54 15 320 22 440 11 102 -9 155 -16 180 -22 14 -4 34 -8 45 -9 28 -3 82
-14 130 -26 22 -6 48 -11 58 -12 9 -1 17 -5 17 -10 0 -4 4 -6 9 -3 4 3 31 -3
60 -13 28 -11 51 -18 51 -16 0 2 30 -7 68 -21 37 -14 72 -27 77 -28 6 -2 17
-6 25 -9 8 -3 56 -20 105 -37 50 -17 97 -34 105 -37 8 -4 17 -7 20 -8 3 -1 39
-12 80 -25 41 -13 80 -25 85 -26 6 -2 24 -7 42 -12 17 -6 34 -8 37 -4 3 3 6 0
6 -6 0 -7 14 -12 30 -12 17 0 30 -5 30 -12 0 -6 2 -9 6 -6 3 3 22 2 42 -3 20
-5 48 -12 62 -14 44 -8 70 -14 78 -18 4 -3 27 -8 52 -11 25 -3 56 -8 70 -11
94 -20 314 -23 379 -5 23 6 45 9 48 7 7 -8 -167 -92 -217 -106 -76 -20 -130
-30 -200 -38 -90 -9 -475 -4 -475 7 0 1 -11 3 -25 4 -75 8 -148 17 -170 21
-13 3 -40 7 -60 10 -20 3 -45 7 -57 9 -12 3 -43 8 -70 12 -26 3 -57 8 -68 11
-11 2 -29 6 -40 7 -31 6 -85 16 -140 26 -27 5 -61 12 -75 14 -14 3 -35 7 -46
10 -12 2 -37 7 -55 10 -19 3 -45 8 -59 10 -14 3 -41 7 -60 10 -19 3 -46 8 -60
11 -28 6 -104 15 -165 21 -48 4 -208 4 -250 -1 -56 -6 -175 -29 -182 -35 -2
-2 -6 -3 -10 -4 -7 -2 -27 -11 -93 -39 -183 -81 -338 -274 -445 -557 -30 -78
-88 -194 -111 -221 -8 -8 -14 -21 -14 -27 0 -7 -4 -12 -8 -12 -4 0 -16 -13
-25 -29 -10 -17 -53 -65 -96 -108 -88 -86 -94 -91 -136 -119 -17 -10 -32 -21
-35 -24 -3 -3 -21 -13 -40 -23 -27 -13 -30 -17 -14 -17 54 0 205 69 293 136
72 54 135 119 192 196 21 29 46 62 55 73 8 11 41 72 72 135 31 63 59 117 62
120 3 3 12 18 20 35 39 77 158 194 243 239 37 20 67 33 67 30 0 -3 6 -2 13 3
17 10 44 15 94 17 24 0 43 4 43 7 0 6 9 6 95 -6 65 -9 71 -14 43 -33 -91 -60
-158 -182 -183 -332 -3 -19 -8 -42 -10 -50 -12 -47 -22 -169 -30 -385 -9 -264
-18 -406 -28 -445 -30 -121 -77 -213 -177 -345 -26 -34 -233 -241 -270 -269
l-35 -27 28 5 c120 20 281 108 370 201 91 95 186 265 212 382 2 10 8 32 13 48
l9 30 7 -41 c35 -200 15 -364 -69 -569 -5 -11 -9 -22 -9 -25 -2 -8 -75 -154
-89 -175 -90 -144 -220 -319 -301 -407 -63 -68 -129 -160 -166 -232 -20 -39
-38 -75 -38 -81 -1 -5 -6 -23 -12 -40 -5 -16 -12 -41 -14 -55 -3 -14 -5 -25
-6 -25 -6 0 -5 -117 1 -126 4 -8 26 0 68 25 33 19 61 33 61 29 0 -3 6 -1 13 4
15 13 125 50 169 59 97 17 133 20 209 18 260 -7 400 -118 406 -320 2 -76 0
-85 -30 -135 -71 -118 -244 -141 -349 -46 -51 45 -48 54 6 22 30 -17 65 -28
106 -31 121 -11 190 55 190 180 0 97 -51 162 -155 196 -68 22 -254 18 -342 -9
-18 -5 -33 -7 -33 -3 0 4 -4 2 -8 -3 -4 -6 -26 -16 -49 -23 -85 -25 -216 -135
-221 -186 0 -6 -3 -23 -5 -38 -2 -16 -1 -28 3 -28 7 0 21 -49 19 -66 0 -4 3
-10 8 -13 4 -3 16 -22 26 -41 58 -114 219 -285 391 -413 l69 -52 97 -200 c53
-110 132 -272 174 -360 42 -88 84 -173 93 -190 16 -29 16 -30 -2 -15 -11 8
-29 24 -41 35 -11 11 -54 49 -94 85 -40 36 -88 80 -107 98 -18 18 -33 31 -33
29 0 -3 -17 12 -38 32 -21 20 -75 70 -122 111 -46 41 -106 96 -134 121 -28 26
-63 57 -78 70 -14 13 -56 51 -93 84 -37 33 -79 71 -95 85 -15 14 -45 41 -66
60 -80 72 -190 101 -281 74 -22 -7 -44 -10 -47 -7 -3 4 -6 0 -6 -7 0 -7 -3
-11 -6 -7 -11 11 -183 -94 -240 -147 -6 -6 -22 -18 -34 -26 -12 -8 -28 -19
-34 -25 -31 -27 -86 -65 -95 -65 -6 0 -11 -4 -11 -9 0 -11 -96 -57 -159 -77
-71 -21 -179 -12 -240 22 -79 43 -117 139 -98 246 4 24 16 34 13 11 -7 -43 39
-118 89 -145 39 -22 113 -36 124 -25 8 8 11 8 11 0 0 -8 11 -8 38 -2 20 5 45
11 55 14 36 8 106 48 143 82 22 19 62 55 89 80 28 25 60 50 73 56 12 5 22 14
22 19 0 4 6 8 14 8 7 0 19 6 25 14 7 8 24 17 39 21 15 4 35 14 45 22 9 9 17
13 17 9 0 -4 6 -4 12 1 7 4 18 9 23 10 6 1 37 9 70 18 67 17 175 22 196 10 12
-8 12 -6 0 8 -7 9 -17 17 -21 17 -13 0 -192 101 -280 159 -263 171 -470 354
-678 598 -66 78 -272 378 -272 397 0 2 -18 36 -40 76 -22 40 -40 79 -40 86 0
7 -3 14 -7 16 -17 7 -138 330 -157 418 -3 14 -10 42 -15 63 -5 20 -7 37 -5 37
2 0 22 -37 45 -82 53 -107 132 -216 225 -312 40 -42 76 -76 79 -76 3 0 30 -21
61 -46 31 -25 58 -43 60 -41 3 2 -21 31 -52 63 -31 33 -70 79 -87 104 -17 25
-34 47 -37 50 -14 10 -140 278 -160 340 -27 81 -76 272 -84 325 -4 23 -9 52
-11 65 -12 56 -18 108 -19 152 -1 27 -4 48 -7 48 -3 0 -6 15 -6 33 0 17 -4 70
-8 117 -13 161 -8 546 10 740 2 25 7 79 10 120 4 41 8 77 10 80 2 3 6 35 9 70
4 36 8 74 11 85 2 11 4 23 4 28 2 15 17 6 17 -10 1 -28 16 -127 20 -134 2 -3
6 -21 9 -40 3 -19 11 -52 16 -74 6 -22 13 -47 15 -55 2 -8 10 -36 18 -62 8
-27 13 -48 10 -48 -3 0 1 -10 8 -22 7 -13 13 -26 14 -30 1 -5 3 -10 4 -13 4
-8 7 -17 15 -52 4 -18 10 -33 14 -33 4 0 13 -21 20 -46 8 -25 22 -62 31 -83
10 -20 27 -57 39 -83 11 -26 26 -50 33 -54 7 -4 8 -3 4 4 -8 13 -15 43 -21 82
-2 14 -6 43 -9 65 -24 156 -25 426 -2 600 8 59 14 89 52 255 11 52 56 180 99
285 5 11 9 22 10 25 11 44 212 396 249 436 6 7 20 24 31 40 18 25 59 77 128
162 38 46 280 286 326 322 24 19 48 40 55 46 27 25 128 95 132 92 2 -2 -10
-18 -26 -36 -16 -18 -37 -45 -47 -62 -9 -16 -21 -30 -25 -30 -4 0 -8 -6 -8
-13 0 -7 -8 -22 -17 -33 -10 -11 -19 -26 -21 -34 -2 -8 -9 -22 -16 -30 -11
-13 -68 -143 -72 -162 -1 -5 -3 -10 -4 -13 -1 -3 -3 -8 -4 -12 -1 -5 -5 -14
-10 -21 -4 -7 -9 -23 -11 -35 -1 -12 -7 -40 -13 -62 -24 -87 -42 -338 -25
-348 5 -3 27 30 48 73 22 44 43 80 48 80 4 0 7 5 7 10 0 10 115 188 129 200 3
3 24 28 46 55 56 70 190 202 261 255 32 25 65 51 72 58 7 6 17 12 21 12 4 0
16 8 27 18 72 63 403 209 539 238 11 2 31 7 45 10 14 3 34 7 45 9 11 2 21 4
23 5 1 2 11 4 22 5 11 1 21 3 23 5 3 2 44 7 147 15 47 4 86 8 87 9 7 6 103 0
100 -8z"/>
<path d="M6159 1773 c-5 -11 -97 -73 -108 -73 -5 0 -11 -4 -13 -8 -1 -5 -37
-33 -78 -63 -41 -29 -79 -57 -85 -61 -5 -5 -50 -38 -100 -75 -49 -37 -92 -70
-93 -75 -2 -4 -8 -6 -13 -2 -5 3 -9 1 -9 -4 0 -5 -19 -22 -42 -39 -24 -17 -52
-40 -63 -50 -11 -11 -27 -24 -36 -29 -31 -18 -134 -110 -245 -219 -130 -127
-184 -207 -184 -271 0 -38 4 -45 37 -65 62 -39 187 -27 303 27 19 9 55 26 80
38 138 65 313 196 434 325 28 30 61 65 74 78 12 13 22 28 22 33 0 6 4 10 8 10
4 0 25 30 47 68 21 37 44 70 50 74 5 4 7 8 2 8 -4 0 1 17 12 38 11 21 23 56
26 77 4 22 10 44 13 50 10 17 8 119 -4 164 -10 42 -27 63 -35 44z"/>
</g>
</svg>
